<svg width="45" height="46" viewBox="0 0 45 46" fill="none" xmlns="http://www.w3.org/2000/svg">
<path d="M22.3234 38.5672C13.7685 38.5672 6.80859 31.6074 6.80859 23.0524C6.80859 14.4975 13.7685 7.5376 22.3234 7.5376C30.8784 7.5376 37.8382 14.4975 37.8382 23.0524C37.8382 31.6074 30.8784 38.5672 22.3234 38.5672ZM22.3234 9.89114C15.0663 9.89114 9.16213 15.7953 9.16213 23.0524C9.16213 30.3095 15.0663 36.2137 22.3234 36.2137C29.5805 36.2137 35.4847 30.3095 35.4847 23.0524C35.4847 15.7953 29.5805 9.89114 22.3234 9.89114Z" fill="#262163"/>
<path d="M25.6663 45.3771H18.9803C18.3946 45.3771 17.8928 44.942 17.8101 44.362L17.5278 42.4774C15.5715 41.9966 13.7121 41.2251 11.9814 40.1763L10.44 41.3167C10.0113 41.6338 9.4145 41.6227 8.99773 41.2891C8.96364 41.2619 8.93146 41.2328 8.90081 41.2021L4.17305 36.4744C4.14241 36.4437 4.11329 36.4115 4.08609 36.3774C3.76586 35.9771 3.74134 35.4087 4.02557 34.9823L5.19889 33.3942C4.15007 31.6631 3.37858 29.8037 2.89783 27.8474L1.00512 27.5639C0.428987 27.4778 -0.00195312 26.9775 -0.00195312 26.3948V19.7089C-0.00195312 19.1232 0.433208 18.6213 1.01317 18.5386L2.89783 18.2563C3.37857 16.3 4.15006 14.4406 5.19889 12.7099L4.05852 11.1685C3.74134 10.7394 3.75283 10.143 4.0861 9.72625C4.1133 9.69215 4.14242 9.65998 4.17306 9.62933L8.90082 4.90157C8.93146 4.87092 8.96364 4.84181 8.99774 4.81461C9.39728 4.49476 9.96613 4.46986 10.3929 4.75409L11.981 5.92741C13.7121 4.87859 15.5715 4.1071 17.5278 3.62635L17.8112 1.73363C17.8974 1.1575 18.3977 0.726562 18.9803 0.726562H25.6663C26.252 0.726562 26.7538 1.16172 26.8366 1.74168L27.1189 3.62635C29.0752 4.10709 30.9346 4.87858 32.6653 5.92741L34.2067 4.78703C34.635 4.46947 35.2325 4.48135 35.6489 4.81462C35.683 4.84182 35.7152 4.87093 35.7459 4.90157L40.4736 9.62934C40.5043 9.65998 40.5334 9.69216 40.5606 9.72626C40.8808 10.1266 40.9053 10.695 40.6211 11.1214L39.4478 12.7095C40.4966 14.4406 41.2681 16.3 41.7488 18.2563L43.6415 18.5398C44.2173 18.6259 44.6486 19.1258 44.6486 19.7089V26.3948C44.6486 26.9805 44.2135 27.4824 43.6335 27.5651L41.7488 27.8474C41.2681 29.8037 40.4966 31.6631 39.4478 33.3938L40.5881 34.9352C40.9053 35.3643 40.8938 35.9607 40.5606 36.3774C40.5334 36.4115 40.5042 36.4437 40.4736 36.4744L35.7458 41.2021C35.7152 41.2328 35.683 41.2619 35.6489 41.2891C35.2486 41.6089 34.6798 41.6346 34.2538 41.3496L32.6656 40.1763C30.9346 41.2251 29.0752 41.9966 27.1189 42.4774L26.8354 44.3701C26.7492 44.9462 26.249 45.3771 25.6663 45.3771ZM19.9893 43.0236H24.6573L24.9105 41.3312C24.9837 40.8417 25.3557 40.4502 25.841 40.3521C28.067 39.902 30.1616 39.0332 32.0662 37.7699C32.4779 37.496 33.0177 37.5098 33.4164 37.8044L34.7955 38.8245L38.0967 35.5232L37.0758 34.145C36.7817 33.747 36.7679 33.2072 37.0414 32.7947C38.3047 30.8901 39.1735 28.7955 39.6236 26.5695C39.7217 26.0842 40.1131 25.7122 40.6027 25.6391L42.2951 25.3858V20.7178L40.6027 20.4646C40.1131 20.3915 39.7217 20.0195 39.6236 19.5342C39.1735 17.3082 38.3047 15.2136 37.0414 13.309C36.7679 12.8965 36.7817 12.3567 37.0758 11.9587L38.0959 10.5797L34.7947 7.27847L33.4164 8.29933C33.0177 8.59314 32.4787 8.60693 32.0661 8.33381C30.1616 7.07047 28.067 6.20168 25.841 5.75159C25.3556 5.65352 24.9837 5.26203 24.9105 4.77247L24.6573 3.0801H19.9893L19.7361 4.77247C19.663 5.26203 19.291 5.65352 18.8057 5.75159C16.5797 6.20168 14.4851 7.07047 12.5805 8.33381C12.1679 8.60693 11.6282 8.59314 11.2302 8.29933L9.85118 7.27924L6.54994 10.5805L7.57081 11.9587C7.865 12.3567 7.87879 12.8965 7.60528 13.309C6.34194 15.2136 5.47316 17.3082 5.02306 19.5342C4.925 20.0195 4.53351 20.3915 4.04395 20.4646L2.35158 20.7178V25.3859L4.04395 25.6391C4.5335 25.7122 4.925 26.0842 5.02306 26.5695C5.47316 28.7955 6.34194 30.8901 7.60528 32.7947C7.87879 33.2072 7.865 33.747 7.57081 34.145L6.55071 35.524L9.85195 38.8252L11.2302 37.8044C11.6282 37.5098 12.1672 37.496 12.5805 37.7699C14.4851 39.0332 16.5797 39.902 18.8057 40.3521C19.291 40.4502 19.663 40.8417 19.7361 41.3312L19.9893 43.0236Z" fill="#262163"/>
<path d="M32.6161 28.0646L23.3353 12.2959C23.1235 11.935 22.7391 11.7153 22.3233 11.7153C21.9075 11.7153 21.5231 11.935 21.3113 12.2959L12.0305 28.0646C11.8108 28.4254 11.8108 28.8805 12.0227 29.2492C12.2345 29.6101 12.6189 29.8376 13.0425 29.8376H31.6041C32.0277 29.8376 32.4121 29.6101 32.624 29.2492C32.8358 28.8805 32.8358 28.4254 32.6161 28.0646ZM23.1549 26.2602C22.9353 26.4799 22.6371 26.6054 22.3233 26.6054C22.2449 26.6054 22.1664 26.5975 22.0958 26.5819C22.0173 26.5662 21.9468 26.5504 21.8761 26.5191C21.8055 26.4877 21.7349 26.4485 21.6721 26.4092C21.6094 26.37 21.5467 26.3151 21.4917 26.2602C21.272 26.0405 21.1465 25.7424 21.1465 25.4286C21.1465 25.358 21.1544 25.2795 21.1701 25.2011C21.1858 25.1227 21.2093 25.0521 21.2407 24.9814C21.2642 24.9108 21.3035 24.8402 21.3427 24.7775C21.3897 24.7147 21.4368 24.6519 21.4917 24.597C21.5466 24.5421 21.6094 24.495 21.6721 24.4558C21.7349 24.4087 21.8055 24.3774 21.8761 24.346C21.9468 24.3146 22.0173 24.2911 22.0958 24.2754C22.4802 24.2048 22.8803 24.3303 23.1549 24.597C23.2098 24.6519 23.2569 24.7147 23.304 24.7775C23.3432 24.8402 23.3824 24.9108 23.4138 24.9814C23.4373 25.0521 23.4609 25.1227 23.4765 25.2011C23.4922 25.2795 23.5001 25.358 23.5001 25.4286C23.5001 25.7424 23.3746 26.0484 23.1549 26.2602ZM23.5001 22.6044C23.5001 23.2477 22.9745 23.7811 22.3233 23.7811C21.6722 23.7811 21.1465 23.2477 21.1465 22.6044V19.4977C21.1465 18.8466 21.6722 18.3209 22.3233 18.3209C22.9745 18.3209 23.5001 18.8466 23.5001 19.4977V22.6044Z" fill="#ED1D24"/>
</svg>
