<svg width="46" height="46" viewBox="0 0 46 46" fill="none" xmlns="http://www.w3.org/2000/svg">
<path d="M28.75 7.90625V10.0625C28.75 10.2531 28.6743 10.4359 28.5395 10.5707C28.4047 10.7055 28.2219 10.7812 28.0313 10.7812H24.4375C24.2469 10.7812 24.0641 10.7055 23.9293 10.5707C23.7945 10.4359 23.7188 10.2531 23.7188 10.0625V7.90625H15.3914L23.2976 15.8125H39.2337L31.3275 7.90625H28.75Z" fill="#262163"/>
<path d="M29.4688 21.5625H27.3125V23.7188H29.4688V21.5625Z" fill="black"/>
<path d="M15.8125 21.5625H12.2188V29.4688H15.8125V21.5625Z" fill="#262163"/>
<path d="M22.2812 29.4688V16.8288L13.6771 8.22467L5.75 16.8123V18.7292C6.21039 19.1974 6.46849 19.8277 6.46875 20.4844V26.7289C6.88243 26.4002 7.39046 26.2126 7.91847 26.1934C8.28781 26.1818 8.65517 26.2518 8.99443 26.3982C9.33368 26.5447 9.63651 26.7641 9.88138 27.0408L10.7812 28.0694V20.8438C10.7812 20.6531 10.857 20.4703 10.9918 20.3355C11.1266 20.2007 11.3094 20.125 11.5 20.125H16.5312C16.7219 20.125 16.9047 20.2007 17.0395 20.3355C17.1743 20.4703 17.25 20.6531 17.25 20.8438V29.4688H22.2812Z" fill="#262163"/>
<path d="M33.9969 29.4688L36.1215 27.0408C36.367 26.7648 36.6699 26.5459 37.009 26.3995C37.3481 26.2531 37.7152 26.1828 38.0844 26.1934C38.6114 26.2132 39.1183 26.4008 39.5312 26.7289V20.4844C39.5315 19.8277 39.7896 19.1974 40.25 18.7292V17.25H23.7188V29.4688H33.9969ZM33.0625 20.8438C33.0625 20.6531 33.1382 20.4703 33.273 20.3355C33.4078 20.2007 33.5906 20.125 33.7812 20.125H37.375C37.5656 20.125 37.7484 20.2007 37.8832 20.3355C38.018 20.4703 38.0938 20.6531 38.0938 20.8438V24.4375C38.0938 24.6281 38.018 24.8109 37.8832 24.9457C37.7484 25.0805 37.5656 25.1562 37.375 25.1562H33.7812C33.5906 25.1562 33.4078 25.0805 33.273 24.9457C33.1382 24.8109 33.0625 24.6281 33.0625 24.4375V20.8438ZM25.875 20.8438C25.875 20.6531 25.9507 20.4703 26.0855 20.3355C26.2203 20.2007 26.4031 20.125 26.5938 20.125H30.1875C30.3781 20.125 30.5609 20.2007 30.6957 20.3355C30.8305 20.4703 30.9062 20.6531 30.9062 20.8438V24.4375C30.9062 24.6281 30.8305 24.8109 30.6957 24.9457C30.5609 25.0805 30.3781 25.1562 30.1875 25.1562H26.5938C26.4031 25.1562 26.2203 25.0805 26.0855 24.9457C25.9507 24.8109 25.875 24.6281 25.875 24.4375V20.8438Z" fill="#262163"/>
<path d="M36.6562 21.5625H34.5V23.7188H36.6562V21.5625Z" fill="black"/>
<path d="M42.0469 19.4062C41.7609 19.4062 41.4867 19.5198 41.2845 19.722C41.0823 19.9242 40.9688 20.1984 40.9688 20.4844V28.75C40.9689 28.9215 40.9075 29.0873 40.7955 29.2172L39.8906 30.2781L39.8784 30.2924L36.4866 34.2456C36.3604 34.3821 36.1863 34.4645 36.0006 34.4753C35.815 34.4862 35.6324 34.4247 35.4912 34.3037C35.35 34.1828 35.2611 34.0118 35.2433 33.8267C35.2254 33.6417 35.28 33.4569 35.3956 33.3112L38.7945 29.3444C38.9204 29.1944 39.0015 29.012 39.0288 28.8181C39.0561 28.6242 39.0284 28.4265 38.9489 28.2476C38.8693 28.0687 38.7411 27.9157 38.5789 27.806C38.4167 27.6963 38.2269 27.6344 38.0312 27.6273C37.875 27.6188 37.7189 27.6469 37.5755 27.7093C37.432 27.7717 37.305 27.8666 37.2047 27.9867L33.6073 32.0979C33.5743 32.1354 33.5377 32.1696 33.4981 32.2C32.6956 32.8038 32.044 33.5852 31.5943 34.4831C31.1447 35.381 30.9091 36.3708 30.9062 37.375V40.9688H37.6496L42.5938 31.0802C42.9421 30.3811 43.1239 29.6108 43.125 28.8298V20.4844C43.125 20.1984 43.0114 19.9242 42.8092 19.722C42.607 19.5198 42.3328 19.4062 42.0469 19.4062Z" fill="#ED1E24"/>
<path d="M8.35044 40.9688H15.0938V37.375C15.0914 36.3712 14.8565 35.3816 14.4076 34.4837C13.9587 33.5859 13.3079 32.8042 12.5062 32.2C12.4666 32.1696 12.43 32.1354 12.397 32.0979L8.80325 27.9867C8.71387 27.8823 8.60479 27.7965 8.48226 27.7343C8.35973 27.672 8.22614 27.6346 8.08912 27.6239C7.9521 27.6133 7.81433 27.6298 7.68368 27.6724C7.55303 27.7151 7.43205 27.783 7.32766 27.8724C7.22326 27.9618 7.1375 28.0709 7.07526 28.1934C7.01302 28.3159 6.97552 28.4495 6.96491 28.5865C6.9543 28.7236 6.97078 28.8613 7.01341 28.992C7.05604 29.1226 7.12399 29.2436 7.21338 29.348L10.6123 33.3141C10.7279 33.4597 10.7825 33.6445 10.7646 33.8296C10.7468 34.0147 10.6579 34.1857 10.5167 34.3066C10.3755 34.4275 10.1929 34.4891 10.0073 34.4782C9.82165 34.4674 9.64746 34.385 9.52128 34.2484L6.13022 30.2953L6.11728 30.2809L5.20447 29.2172C5.09254 29.0873 5.03105 28.9215 5.03125 28.75V20.4844C5.03125 20.1984 4.91766 19.9242 4.71547 19.722C4.51329 19.5198 4.23906 19.4062 3.95312 19.4062C3.66719 19.4062 3.39296 19.5198 3.19078 19.722C2.98859 19.9242 2.875 20.1984 2.875 20.4844V28.8298C2.87609 29.6108 3.05789 30.3811 3.40616 31.0802L8.35044 40.9688Z" fill="#ED1E24"/>
<path d="M27.3125 5.03125H25.1562V9.34375H27.3125V5.03125Z" fill="#262163"/>
</svg>
