<svg width="44" height="44" viewBox="0 0 44 44" fill="none" xmlns="http://www.w3.org/2000/svg">
<g clip-path="url(#clip0_30_548)">
<path d="M32.7933 9.4986H41.2495V6.7486H32.7933C31.7738 6.75042 30.7749 7.03554 29.9081 7.57213C29.0413 8.10872 28.3407 8.87567 27.8845 9.78735L26.5095 12.5373L25.7533 12.7986C24.6672 13.1622 23.7217 13.8558 23.0487 14.7827C22.3758 15.7095 22.009 16.8233 21.9995 17.9686V23.2486C22.0048 24.5808 22.4934 25.8657 23.3745 26.8648V28.7486C23.3745 29.4779 23.6642 30.1774 24.18 30.6931C24.6957 31.2089 25.3952 31.4986 26.1245 31.4986H30.2495C30.9789 31.4986 31.6783 31.2089 32.1941 30.6931C32.7098 30.1774 32.9995 29.4779 32.9995 28.7486H41.2495V23.2486H35.7495C35.3848 23.2486 35.0351 23.1037 34.7772 22.8459C34.5194 22.588 34.3745 22.2383 34.3745 21.8736C34.3745 21.5089 34.5194 21.1592 34.7772 20.9013C35.0351 20.6435 35.3848 20.4986 35.7495 20.4986H41.2495V14.9986H30.8133L29.177 13.3486L30.3458 11.0248C30.5724 10.5688 30.9212 10.1846 31.3534 9.91509C31.7855 9.6456 32.284 9.50142 32.7933 9.4986ZM29.562 19.8111C29.9699 19.8111 30.3687 19.9321 30.7079 20.1587C31.0471 20.3853 31.3114 20.7074 31.4675 21.0843C31.6236 21.4612 31.6645 21.8759 31.5849 22.276C31.5053 22.6761 31.3089 23.0436 31.0204 23.332C30.732 23.6204 30.3645 23.8169 29.9644 23.8965C29.5643 23.976 29.1496 23.9352 28.7727 23.7791C28.3959 23.623 28.0737 23.3586 27.8471 23.0195C27.6205 22.6803 27.4995 22.2815 27.4995 21.8736C27.4995 21.3266 27.7168 20.802 28.1036 20.4152C28.4904 20.0284 29.015 19.8111 29.562 19.8111Z" fill="#262163"/>
<path d="M5.50105 14.9972V5.24848C8.99874 5.11158 12.3653 3.8804 15.126 1.72848V14.9972H19.8285C20.2429 13.9184 20.8793 12.9386 21.6965 12.1214C22.5137 11.3042 23.4934 10.6678 24.5723 10.2535L25.4248 8.56223C25.9227 7.54549 26.6303 6.64575 27.501 5.92223V3.99723C27.5022 3.65084 27.3725 3.31679 27.138 3.06187C26.9034 2.80695 26.5813 2.64994 26.236 2.62223C21.0935 2.20973 18.4398 1.24723 16.1023 -1.10402C15.9745 -1.2329 15.8224 -1.33519 15.6548 -1.40499C15.4873 -1.4748 15.3076 -1.51074 15.126 -1.51074C14.9445 -1.51074 14.7648 -1.4748 14.5973 -1.40499C14.4297 -1.33519 14.2776 -1.2329 14.1498 -1.10402C11.8123 1.24723 9.15855 2.20973 4.01605 2.62223C3.67076 2.64994 3.34866 2.80695 3.11413 3.06187C2.87961 3.31679 2.74994 3.65084 2.75105 3.99723V16.9772C2.74287 19.5321 3.45097 22.0381 4.79498 24.2109C6.139 26.3837 8.06513 28.1362 10.3548 29.2697L14.4798 31.346C14.6717 31.4427 14.8836 31.4931 15.0985 31.4931C15.3135 31.4931 15.5254 31.4427 15.7173 31.346L19.8423 29.2697C20.1035 29.146 20.3373 28.981 20.5848 28.8435C20.5848 28.8435 20.5848 28.7747 20.5848 28.7472V27.7847C20.2499 27.2716 19.9732 26.7228 19.7598 26.1485C19.3986 26.3926 19.022 26.6131 18.6323 26.8085L15.126 28.5822V14.9972H5.50105Z" fill="#ED1E24"/>
</g>
<defs>
<clipPath id="clip0_30_548">
<rect width="44" height="44" fill="white"/>
</clipPath>
</defs>
</svg>
