<svg width="84" height="84" viewBox="0 0 84 84" fill="none" xmlns="http://www.w3.org/2000/svg">
<path d="M42.0013 31.5099C47.8419 30.0399 53.748 26.2337 53.748 19.7632L53.643 10.2609C53.6415 9.99308 53.5576 9.73223 53.4026 9.51383C53.2476 9.29542 53.0291 9.13007 52.7768 9.04026L42.4476 5.33901C42.1593 5.234 41.8433 5.234 41.5551 5.33901L31.2259 9.04026C30.9736 9.13006 30.7551 9.29541 30.6001 9.51381C30.4451 9.73222 30.3611 9.99308 30.3596 10.2609L30.2546 19.7763C30.2547 26.2337 36.1739 30.0531 42.0013 31.5099ZM36.9352 17.4532C37.183 17.2073 37.518 17.0693 37.8671 17.0693C38.2162 17.0693 38.5512 17.2073 38.7989 17.4532L40.6233 19.2907L45.2039 14.6971C45.451 14.4499 45.7862 14.3111 46.1357 14.3111C46.4853 14.3111 46.8205 14.4499 47.0676 14.6971C47.3148 14.9442 47.4536 15.2794 47.4536 15.6289C47.4536 15.9785 47.3148 16.3137 47.0676 16.5608L41.5552 22.0732C41.3064 22.3172 40.9718 22.4538 40.6233 22.4538C40.2749 22.4538 39.9403 22.3172 39.6915 22.0732L36.9353 19.317C36.6894 19.0692 36.5513 18.7343 36.5513 18.3851C36.5513 18.036 36.6893 17.701 36.9352 17.4532Z" fill="#ED1E24"/>
<path d="M27.5736 65.6228L25.6455 70.8702H58.5053L56.7071 65.6228H27.5736Z" fill="#262163"/>
<path d="M78.5535 49.9361C78.241 48.7481 77.5833 47.6793 76.6635 46.865C74.0648 44.6993 71.1381 42.1268 69.7074 40.6963H73.8549C74.3247 40.6992 74.7904 40.6091 75.2252 40.4313C75.66 40.2535 76.0554 39.9915 76.3886 39.6603C76.7218 39.3291 76.9862 38.9353 77.1666 38.5016C77.3471 38.0679 77.44 37.6027 77.44 37.1329C77.44 36.6632 77.3471 36.198 77.1666 35.7643C76.9862 35.3305 76.7218 34.9368 76.3886 34.6056C76.0554 34.2744 75.66 34.0124 75.2252 33.8346C74.7904 33.6568 74.3247 33.5667 73.8549 33.5696C71.8862 33.6746 68.2243 33.1233 66.5705 34.3833C65.4025 31.4433 63.9981 27.8471 62.9219 25.0647C62.4252 23.8661 61.5837 22.8421 60.5042 22.1224C59.4246 21.4027 58.1557 21.0198 56.8583 21.0223H56.307C56.2211 21.915 56.0362 22.7954 55.7558 23.6473H56.8583C57.631 23.641 58.3881 23.8647 59.0332 24.2901C59.6783 24.7155 60.1822 25.3232 60.4808 26.036C60.822 26.9678 66.295 40.5126 66.4 40.6964H17.6021C17.7071 40.5126 23.154 27.0073 23.5083 26.0754C23.8023 25.3537 24.3058 24.7367 24.9538 24.304C25.6018 23.8712 26.3647 23.6425 27.1439 23.6473H28.2333C27.951 22.7966 27.7703 21.9155 27.6951 21.0223H27.1439C25.8417 21.0214 24.5686 21.4077 23.4865 22.1322C22.4044 22.8566 21.5622 23.8865 21.067 25.0909C20.0039 27.8602 18.5995 31.4433 17.4315 34.3832C15.7909 33.1101 12.0766 33.6876 10.1472 33.5695C9.20905 33.58 8.31288 33.96 7.65318 34.6272C6.99348 35.2943 6.62349 36.1946 6.62349 37.1329C6.62349 38.0711 6.99348 38.9714 7.65318 39.6386C8.31288 40.3057 9.20905 40.6857 10.1472 40.6962H14.2947C12.851 42.14 9.92408 44.7124 7.27291 46.9305C6.3905 47.7355 5.76121 48.7798 5.46166 49.936C5.08103 50.2642 5.34353 63.5071 5.27791 64.3077C5.27451 65.5848 5.64404 66.8352 6.34115 67.9053C7.03825 68.9755 8.03261 69.8188 9.20219 70.3319C10.032 70.6861 10.9249 70.8692 11.8272 70.87H22.852L25.4245 63.8613C25.5165 63.6079 25.6842 63.3888 25.9049 63.2339C26.1256 63.0789 26.3886 62.9956 26.6583 62.9951H57.6458C57.9209 62.9944 58.1893 63.0802 58.4131 63.2404C58.6368 63.4005 58.8046 63.6269 58.8927 63.8876L61.2814 70.87H72.1749C73.0772 70.8692 73.9701 70.6861 74.7999 70.3319C75.9695 69.8173 76.9642 68.974 77.6633 67.9045C78.3623 66.835 78.7355 65.5854 78.7374 64.3076C78.6585 63.4677 78.9079 50.2905 78.5535 49.9361ZM25.582 57.0628C25.4723 57.2739 25.3063 57.4506 25.1025 57.5733C24.8987 57.6961 24.6649 57.7601 24.427 57.7584H15.7647C14.0244 57.7578 12.3557 57.0662 11.1251 55.8357C9.89456 54.6051 9.20296 52.9364 9.20231 51.1961C9.20333 50.8483 9.34194 50.5151 9.58786 50.2692C9.83378 50.0232 10.167 49.8846 10.5148 49.8836H20.9227C21.1375 49.8845 21.3489 49.9375 21.5386 50.0381C21.7284 50.1387 21.8909 50.2838 22.0121 50.4611L25.5164 55.711C25.6516 55.9081 25.7294 56.1389 25.741 56.3776C25.7526 56.6163 25.6975 56.8535 25.582 57.0628ZM57.869 51.931L54.3777 57.1809C54.2565 57.3582 54.094 57.5034 53.9042 57.604C53.7145 57.7046 53.5031 57.7576 53.2884 57.7584H30.7269C30.5121 57.7576 30.3008 57.7046 30.111 57.604C29.9213 57.5034 29.7588 57.3582 29.6376 57.1809L26.1332 51.931C26.0017 51.7331 25.9262 51.5032 25.9146 51.2658C25.9031 51.0285 25.9559 50.7924 26.0675 50.5825C26.1792 50.3727 26.3454 50.197 26.5488 50.0739C26.7521 49.9509 26.9849 49.8851 27.2226 49.8835H56.7796C57.017 49.8858 57.2493 49.952 57.4522 50.0752C57.6552 50.1984 57.8211 50.3741 57.9326 50.5836C58.0441 50.7932 58.097 51.0289 58.0858 51.2661C58.0746 51.5032 57.9997 51.7329 57.869 51.931ZM68.2375 57.7584H59.5752C59.3389 57.7536 59.1082 57.6857 58.9068 57.562C58.7055 57.4382 58.5408 57.2629 58.4298 57.0543C58.3188 56.8456 58.2654 56.6111 58.2753 56.375C58.2851 56.1389 58.3578 55.9096 58.4858 55.7109L61.9901 50.4611C62.1113 50.2838 62.2738 50.1387 62.4636 50.0381C62.6533 49.9375 62.8647 49.8845 63.0794 49.8836H73.4874C73.8352 49.8846 74.1684 50.0232 74.4143 50.2692C74.6602 50.5151 74.7989 50.8483 74.7999 51.1961C74.7992 52.9364 74.1076 54.6052 72.8771 55.8357C71.6465 57.0662 69.9777 57.7578 68.2375 57.7584Z" fill="#262163"/>
<path d="M6.58459 71.8554V74.8068C6.58765 75.8495 7.00324 76.8487 7.74059 77.5861C8.47793 78.3234 9.47711 78.739 10.5199 78.7421H18.3904C19.4331 78.739 20.4323 78.3234 21.1697 77.5861C21.907 76.8487 22.3226 75.8495 22.3256 74.8068V73.495H11.8316C9.95563 73.501 8.12342 72.9284 6.58459 71.8554Z" fill="#262163"/>
<path d="M61.6788 73.495V74.8068C61.6819 75.8495 62.0975 76.8487 62.8348 77.5861C63.5722 78.3234 64.5713 78.739 65.6141 78.7421H73.4846C74.5274 78.739 75.5266 78.3234 76.2639 77.5861C77.0012 76.8487 77.4168 75.8495 77.4199 74.8068V71.8554C75.8801 72.9265 74.0485 73.4988 72.1729 73.495H61.6788Z" fill="#262163"/>
</svg>
