<svg width="37" height="39" viewBox="0 0 37 39" fill="none" xmlns="http://www.w3.org/2000/svg">
<path d="M18.5234 10.6642C19.1545 10.6642 19.666 10.1526 19.666 9.52161C19.666 8.89058 19.1545 8.37903 18.5234 8.37903C17.8924 8.37903 17.3809 8.89058 17.3809 9.52161C17.3809 10.1526 17.8924 10.6642 18.5234 10.6642Z" fill="#262163"/>
<path d="M26.1406 19.957C24.6968 19.957 23.3987 19.1548 22.7531 17.8635L22.5923 17.5418C22.3987 17.1547 22.0031 16.9102 21.5703 16.9102H15.4766C15.0438 16.9102 14.6481 17.1547 14.4546 17.5418L14.2938 17.8634C13.6481 19.1548 12.3501 19.957 10.9062 19.957C10.2752 19.957 9.76367 20.4686 9.76367 21.0996V27.6197C9.76367 30.1832 10.5725 32.6253 12.1028 34.682C13.633 36.7387 15.7397 38.2152 18.1951 38.9518C18.3022 38.9839 18.4128 39 18.5234 39C18.634 39 18.7446 38.9839 18.8517 38.9518C21.3071 38.2152 23.4139 36.7387 24.9441 34.682C26.4743 32.6253 27.2832 30.1832 27.2832 27.6197V21.0996C27.2832 20.4686 26.7716 19.957 26.1406 19.957ZM22.5631 26.6085L18.2542 30.9174C18.0311 31.1405 17.7386 31.2521 17.4463 31.2521C17.1539 31.2521 16.8614 31.1406 16.6384 30.9174L14.484 28.7629C14.0377 28.3167 14.0377 27.5933 14.484 27.1471C14.9301 26.7009 15.6536 26.7009 16.0998 27.1471L17.4464 28.4936L20.9474 24.9927C21.3935 24.5465 22.117 24.5465 22.5632 24.9927C23.0093 25.4389 23.0093 26.1623 22.5631 26.6085Z" fill="#FF0000"/>
<path d="M35.995 13.6566L19.2372 0.250396C18.8199 -0.0834653 18.227 -0.0834653 17.8097 0.250396L1.0519 13.6566C0.559149 14.0508 0.479245 14.7698 0.873511 15.2626C1.2677 15.7552 1.98669 15.8352 2.47944 15.441L4.81251 13.5745V31.3066C4.81251 31.9377 5.32408 32.4492 5.95509 32.4492H8.32548C7.76691 30.9166 7.47852 29.2899 7.47852 27.6197V21.0996C7.47852 19.2096 9.0162 17.6719 10.9063 17.6719C11.4876 17.6719 11.9899 17.3615 12.2499 16.8415L12.4107 16.5198C12.995 15.3512 14.1698 14.625 15.4766 14.625H21.5703C22.8771 14.625 24.0519 15.3512 24.6362 16.52L24.797 16.8417C25.0569 17.3615 25.5593 17.6719 26.1406 17.6719C28.0307 17.6719 29.5684 19.2096 29.5684 21.0996V27.6197C29.5684 29.2899 29.28 30.9166 28.7214 32.4492H31.0918C31.7228 32.4492 32.2344 31.9377 32.2344 31.3066V13.5745L34.5674 15.441C34.7781 15.6095 35.0302 15.6914 35.2805 15.6914C35.6156 15.6914 35.9477 15.5446 36.1734 15.2626C36.5676 14.7698 36.4877 14.0508 35.995 13.6566ZM18.5234 12.9492C16.6334 12.9492 15.0957 11.4116 15.0957 9.5215C15.0957 7.63145 16.6334 6.09377 18.5234 6.09377C20.4135 6.09377 21.9512 7.63145 21.9512 9.5215C21.9512 11.4116 20.4135 12.9492 18.5234 12.9492Z" fill="#262163"/>
<path d="M10.9062 1.14264C10.9062 0.511631 10.3947 6.10352e-05 9.76367 6.10352e-05H7.47852C6.84751 6.10352e-05 6.33594 0.511631 6.33594 1.14264V6.503L10.9062 2.84675V1.14264Z" fill="#262163"/>
</svg>
