<svg width="40" height="39" viewBox="0 0 40 39" fill="none" xmlns="http://www.w3.org/2000/svg">
<g clip-path="url(#clip0_598_233)">
<path fill-rule="evenodd" clip-rule="evenodd" d="M31.9853 12.2609C33.1195 12.2609 34.2282 12.5972 35.1712 13.2273C36.1142 13.8574 36.8492 14.753 37.2832 15.8008C37.7172 16.8486 37.8308 18.0016 37.6095 19.114C37.3883 20.2263 36.8421 21.2481 36.0401 22.05C35.2382 22.852 34.2164 23.3982 33.1041 23.6194C31.9917 23.8407 30.8387 23.7271 29.7909 23.2931C28.7431 22.8591 27.8475 22.1241 27.2174 21.1811C26.5873 20.2381 26.251 19.1294 26.251 17.9952C26.251 16.4744 26.8551 15.0158 27.9305 13.9404C29.0059 12.865 30.4645 12.2609 31.9853 12.2609ZM25.3567 29.631C24.9374 31.1506 23.2652 32.1177 21.7225 31.7043L14.9629 29.893C14.8933 29.8748 14.828 29.843 14.7707 29.7995C14.7134 29.756 14.6652 29.7015 14.629 29.6393C14.5929 29.5771 14.5693 29.5084 14.5598 29.437C14.5502 29.3657 14.5549 29.2932 14.5735 29.2237C14.592 29.1541 14.6242 29.089 14.668 29.0319C14.7119 28.9748 14.7665 28.927 14.8289 28.8911C14.8913 28.8553 14.9602 28.8321 15.0316 28.8229C15.103 28.8138 15.1754 28.8188 15.2449 28.8377L22.0339 30.657C22.981 30.9106 24.0579 30.3259 24.3017 29.3483C24.4244 28.8742 24.356 28.3709 24.1112 27.9467C23.8664 27.5226 23.4649 27.2115 22.993 27.0805L17.8844 25.7117C17.8215 25.6946 17.7621 25.6664 17.7092 25.6284C16.0764 24.4705 14.8669 24.0509 13.7593 24.0795C12.6443 24.1082 11.5622 24.5952 10.2359 25.244C9.00612 25.8455 7.8094 26.4174 6.62549 26.9784L9.79003 34.5771L11.0073 33.9852C11.8635 33.5545 12.8529 33.4705 13.7694 33.7509L19.4036 35.3868C20.8911 35.8187 22.8316 35.0635 24.371 34.4645C28.005 33.0504 31.6499 31.6586 35.2889 30.2563C36.3556 29.8453 37.2289 28.4315 36.8784 27.2959C36.3696 25.6475 33.6842 26.2133 32.5226 26.5537L25.4464 28.6297C25.4771 28.966 25.4467 29.3055 25.3567 29.631ZM8.89659 38.2873L6.18799 39.4118C5.90494 39.5287 5.5871 39.5288 5.30399 39.412C5.02089 39.2952 4.79556 39.071 4.67729 38.7885C3.14833 35.117 1.61935 31.4456 0.0903375 27.7743C0.0312771 27.6341 0.000576091 27.4836 8.03015e-06 27.3315C-0.00056003 27.1794 0.0290161 27.0287 0.0870279 26.8881C0.14504 26.7475 0.230337 26.6198 0.337993 26.5124C0.445648 26.4049 0.573528 26.3199 0.714244 26.2621L3.42299 25.1371C3.70603 25.0202 4.02386 25.0201 4.30695 25.1369C4.59005 25.2537 4.81537 25.4778 4.93362 25.7603C6.46258 29.4317 7.99154 33.1031 9.52049 36.7746C9.57956 36.9148 9.61027 37.0652 9.61084 37.2173C9.61142 37.3694 9.58184 37.5201 9.52383 37.6608C9.46581 37.8014 9.38051 37.9291 9.27285 38.0365C9.16519 38.1439 9.03731 38.2295 8.89659 38.2873ZM31.1946 2C28.433 2 26.881 3.07922 25.4789 5.2375C25.4153 5.3361 25.328 5.41719 25.2249 5.47333C25.1219 5.52948 25.0064 5.5589 24.8891 5.5589C24.7717 5.5589 24.6563 5.52948 24.5532 5.47333C24.4502 5.41719 24.3629 5.3361 24.2992 5.2375C22.8971 3.07922 21.345 2 18.5835 2C15.1028 2 12.278 4.5207 12.278 7.62648C12.278 13.1136 18.275 18.6008 24.4205 24.0878C24.5491 24.2035 24.716 24.2675 24.889 24.2675C25.062 24.2675 25.2289 24.2035 25.3575 24.0878C25.8998 23.6034 26.4395 23.1193 26.9767 22.6353C25.8199 21.3862 25.1714 19.75 25.1585 18.0475C25.1456 16.3451 25.7691 14.6992 26.9069 13.4327C28.0446 12.1661 29.6144 11.3703 31.3085 11.2013C33.0026 11.0323 34.6988 11.5022 36.0643 12.519C36.9706 10.8882 37.5001 9.25734 37.5001 7.62648C37.5005 4.5207 34.6752 2 31.1946 2ZM30.7146 14.7119V16.7245H28.702V19.2656H30.7146V21.2783H33.256V19.2656H35.2686V16.7245H33.256V14.7119H30.7146Z" fill="#262163"/>
</g>
<defs>
<clipPath id="clip0_598_233">
<rect width="40" height="39" fill="white"/>
</clipPath>
</defs>
</svg>
