<svg width="38" height="38" viewBox="0 0 38 38" fill="none" xmlns="http://www.w3.org/2000/svg">
<path fill-rule="evenodd" clip-rule="evenodd" d="M31.9853 10.2609C33.1195 10.2609 34.2282 10.5972 35.1712 11.2273C36.1142 11.8574 36.8492 12.753 37.2832 13.8008C37.7172 14.8486 37.8308 16.0016 37.6095 17.114C37.3883 18.2263 36.8421 19.2481 36.0401 20.05C35.2382 20.852 34.2164 21.3982 33.1041 21.6194C31.9917 21.8407 30.8387 21.7271 29.7909 21.2931C28.7431 20.8591 27.8475 20.1241 27.2174 19.1811C26.5873 18.2381 26.251 17.1294 26.251 15.9952C26.251 14.4744 26.8551 13.0158 27.9305 11.9404C29.0059 10.865 30.4645 10.2609 31.9853 10.2609ZM25.3567 27.631C24.9374 29.1506 23.2652 30.1177 21.7225 29.7043L14.9629 27.893C14.8933 27.8748 14.828 27.843 14.7707 27.7995C14.7134 27.756 14.6652 27.7015 14.629 27.6393C14.5929 27.5771 14.5693 27.5084 14.5598 27.437C14.5502 27.3657 14.5549 27.2932 14.5735 27.2237C14.592 27.1541 14.6242 27.089 14.668 27.0319C14.7119 26.9748 14.7665 26.927 14.8289 26.8911C14.8913 26.8553 14.9602 26.8321 15.0316 26.8229C15.103 26.8138 15.1754 26.8188 15.2449 26.8377L22.0339 28.657C22.981 28.9106 24.0579 28.3259 24.3017 27.3483C24.4244 26.8742 24.356 26.3709 24.1112 25.9467C23.8664 25.5226 23.4649 25.2115 22.993 25.0805L17.8844 23.7117C17.8215 23.6946 17.7621 23.6664 17.7092 23.6284C16.0764 22.4705 14.8669 22.0509 13.7593 22.0795C12.6443 22.1082 11.5622 22.5952 10.2359 23.244C9.00612 23.8455 7.8094 24.4174 6.62549 24.9784L9.79003 32.5771L11.0073 31.9852C11.8635 31.5545 12.8529 31.4705 13.7694 31.7509L19.4036 33.3868C20.8911 33.8187 22.8316 33.0635 24.371 32.4645C28.005 31.0504 31.6499 29.6586 35.2889 28.2563C36.3556 27.8453 37.2289 26.4315 36.8784 25.2959C36.3696 23.6475 33.6842 24.2133 32.5226 24.5537L25.4464 26.6297C25.4771 26.966 25.4467 27.3055 25.3567 27.631ZM8.89659 36.2873L6.18799 37.4118C5.90494 37.5287 5.5871 37.5288 5.30399 37.412C5.02089 37.2952 4.79556 37.071 4.67729 36.7885C3.14833 33.117 1.61935 29.4456 0.0903375 25.7743C0.0312771 25.6341 0.000576091 25.4836 8.03015e-06 25.3315C-0.00056003 25.1794 0.0290161 25.0287 0.0870279 24.8881C0.14504 24.7475 0.230337 24.6198 0.337993 24.5124C0.445648 24.4049 0.573528 24.3199 0.714244 24.2621L3.42299 23.1371C3.70603 23.0202 4.02386 23.0201 4.30695 23.1369C4.59005 23.2537 4.81537 23.4778 4.93362 23.7603C6.46258 27.4317 7.99154 31.1031 9.52049 34.7746C9.57956 34.9148 9.61027 35.0652 9.61084 35.2173C9.61142 35.3694 9.58184 35.5201 9.52383 35.6608C9.46581 35.8014 9.38051 35.9291 9.27285 36.0365C9.16519 36.1439 9.03731 36.2295 8.89659 36.2873ZM31.1946 0C28.433 0 26.881 1.07922 25.4789 3.2375C25.4153 3.3361 25.328 3.41719 25.2249 3.47333C25.1219 3.52948 25.0064 3.5589 24.8891 3.5589C24.7717 3.5589 24.6563 3.52948 24.5532 3.47333C24.4502 3.41719 24.3629 3.3361 24.2992 3.2375C22.8971 1.07922 21.345 0 18.5835 0C15.1028 0 12.278 2.5207 12.278 5.62648C12.278 11.1136 18.275 16.6008 24.4205 22.0878C24.5491 22.2035 24.716 22.2675 24.889 22.2675C25.062 22.2675 25.2289 22.2035 25.3575 22.0878C25.8998 21.6034 26.4395 21.1193 26.9767 20.6353C25.8199 19.3862 25.1714 17.75 25.1585 16.0475C25.1456 14.3451 25.7691 12.6992 26.9069 11.4327C28.0446 10.1661 29.6144 9.37032 31.3085 9.20129C33.0026 9.03227 34.6988 9.50222 36.0643 10.519C36.9706 8.8882 37.5001 7.25734 37.5001 5.62648C37.5005 2.5207 34.6752 0 31.1946 0ZM30.7146 12.7119V14.7245H28.702V17.2656H30.7146V19.2783H33.256V17.2656H35.2686V14.7245H33.256V12.7119H30.7146Z" fill="#262163"/>
</svg>
