<svg width="41" height="41" viewBox="0 0 41 41" fill="none" xmlns="http://www.w3.org/2000/svg">
<g clip-path="url(#clip0_30_571)">
<path d="M23.8018 14.7846C23.8018 14.1321 24.3308 13.6031 24.9833 13.6031C25.6358 13.6031 26.1648 14.1321 26.1648 14.7846V21.5435C26.1846 21.5365 26.2043 21.529 26.2243 21.5223L30.9188 19.9575V12.6012C30.9188 10.4517 29.1701 8.70306 27.0207 8.70306H13.4377C11.2882 8.70306 9.53955 10.4518 9.53955 12.6012V30.9384C9.53955 32.6761 10.6826 34.1513 12.2562 34.653V36.032C12.2562 36.6845 12.7852 37.2135 13.4377 37.2135C14.0902 37.2135 14.6192 36.6845 14.6192 36.032V34.8365H24.9607C24.2104 33.113 23.8008 31.2204 23.8008 29.2534L23.8018 14.7846ZM16.6566 28.9009C16.6566 29.5534 16.1276 30.0824 15.4751 30.0824C14.8226 30.0824 14.2936 29.5534 14.2936 28.9009V14.7846C14.2936 14.1321 14.8226 13.6031 15.4751 13.6031C16.1276 13.6031 16.6566 14.1321 16.6566 14.7846V28.9009ZM21.4107 28.9009C21.4107 29.5534 20.8817 30.0824 20.2292 30.0824C19.5767 30.0824 19.0477 29.5534 19.0477 28.9009V14.7846C19.0477 14.1321 19.5767 13.6031 20.2292 13.6031C20.8817 13.6031 21.4107 14.1321 21.4107 14.7846V28.9009Z" fill="#262163"/>
<path d="M17.8601 2.36301H22.5986V6.34005H24.9617V2.35522C24.9616 1.05658 23.9051 0 22.6064 0H17.8523C16.5536 0 15.4971 1.05658 15.4971 2.35522V6.33997H17.8601V2.36301Z" fill="#262163"/>
<path d="M41.9813 23.7641L34.8501 21.3871C34.6077 21.3063 34.3454 21.3063 34.103 21.3871L26.9719 23.7641C26.4894 23.925 26.1639 24.3765 26.1639 24.885V29.2533C26.1639 34.2587 29.3544 38.6852 34.103 40.2681C34.2243 40.3085 34.3504 40.3288 34.4766 40.3288C34.6028 40.3288 34.729 40.3086 34.8502 40.2681C39.5988 38.6852 42.7892 34.2587 42.7892 29.2533V24.885C42.7892 24.3765 42.4638 23.925 41.9813 23.7641ZM37.8523 30.5401L33.5879 33.134C33.3967 33.2504 33.1846 33.3062 32.9747 33.3062C32.6106 33.3062 32.2533 33.1382 32.023 32.8258L30.7639 31.1183C30.3766 30.5931 30.4884 29.8534 31.0136 29.4662C31.5387 29.0789 32.2785 29.1906 32.6657 29.7159L33.2833 30.5535L36.6242 28.5213C37.1817 28.1822 37.9084 28.3592 38.2477 28.9167C38.5868 29.4741 38.4098 30.201 37.8523 30.5401Z" fill="#ED1E24"/>
</g>
<defs>
<clipPath id="clip0_30_571">
<rect width="40.3288" height="40.3288" fill="white"/>
</clipPath>
</defs>
</svg>
