<svg width="25" height="42" viewBox="0 0 25 42" fill="none" xmlns="http://www.w3.org/2000/svg">
<path d="M21.5389 0.396484H3.31891C1.80097 0.396484 0.558594 1.63769 0.558594 3.1568V38.5026C0.558594 40.0217 1.80097 41.2641 3.31891 41.2641H21.5389C23.0568 41.2641 24.2992 40.0241 24.2992 38.5038V3.1568C24.2992 1.63769 23.0568 0.396484 21.5389 0.396484ZM9.51444 2.38615H15.3433C15.5278 2.38615 15.6773 2.53561 15.6773 2.72127C15.6773 2.90576 15.5278 3.05522 15.3433 3.05522H9.51444C9.32996 3.05522 9.1805 2.90576 9.1805 2.72127C9.1805 2.53561 9.32996 2.38615 9.51444 2.38615ZM12.4289 39.884C11.6664 39.884 11.0487 39.2663 11.0487 38.5026C11.0487 37.739 11.6664 37.1225 12.4289 37.1225C13.1914 37.1225 13.809 37.739 13.809 38.5026C13.809 39.2663 13.1914 39.884 12.4289 39.884ZM22.3784 36.1557H2.47937V4.77399H22.3784V36.1557Z" fill="#262163"/>
</svg>
