<svg width="41" height="41" viewBox="0 0 41 41" fill="none" xmlns="http://www.w3.org/2000/svg">
<g clip-path="url(#clip0_30_552)">
<path d="M31.5068 36.9177C31.8549 36.9177 32.137 36.6355 32.137 36.2875C32.137 35.9395 31.8549 35.6574 31.5068 35.6574C31.1588 35.6574 30.8767 35.9395 30.8767 36.2875C30.8767 36.6355 31.1588 36.9177 31.5068 36.9177Z" fill="black"/>
<path d="M31.5068 31.8766C30.6344 31.8766 29.7816 32.1353 29.0562 32.6199C28.3308 33.1046 27.7654 33.7935 27.4316 34.5995C27.0977 35.4055 27.0104 36.2924 27.1806 37.1481C27.3508 38.0037 27.7709 38.7897 28.3878 39.4065C29.0047 40.0234 29.7906 40.4435 30.6463 40.6137C31.5019 40.7839 32.3888 40.6966 33.1948 40.3627C34.0008 40.0289 34.6897 39.4635 35.1744 38.7381C35.659 38.0127 35.9177 37.1599 35.9177 36.2875C35.9165 35.1181 35.4513 33.9969 34.6244 33.1699C33.7975 32.343 32.6763 31.8778 31.5068 31.8766ZM31.5068 38.1779C31.1329 38.1779 30.7674 38.0671 30.4565 37.8593C30.1457 37.6516 29.9034 37.3564 29.7603 37.0109C29.6172 36.6655 29.5798 36.2854 29.6527 35.9187C29.7256 35.552 29.9057 35.2152 30.1701 34.9508C30.4344 34.6864 30.7713 34.5064 31.138 34.4334C31.5047 34.3605 31.8848 34.3979 32.2302 34.541C32.5756 34.6841 32.8709 34.9264 33.0786 35.2373C33.2863 35.5481 33.3972 35.9136 33.3972 36.2875C33.3957 36.7884 33.1961 37.2684 32.8419 37.6226C32.4877 37.9768 32.0077 38.1765 31.5068 38.1779Z" fill="#262163"/>
<path d="M8.16031 34.4097C8.11916 34.3993 8.07669 34.395 8.03429 34.3971C7.9107 34.3977 7.79009 34.435 7.68771 34.5042C7.54856 34.5985 7.45142 34.7431 7.41675 34.9075C7.38775 35.0713 7.4215 35.2401 7.51127 35.3801C7.60567 35.5178 7.75045 35.6129 7.91435 35.6447C8.07824 35.6766 8.24808 35.6426 8.38716 35.5503C8.52504 35.4548 8.6218 35.3107 8.65812 35.147C8.66543 35.1096 8.66965 35.0716 8.67072 35.0336C8.67092 34.905 8.6313 34.7795 8.5573 34.6744C8.51259 34.6056 8.45433 34.5466 8.38608 34.5011C8.31782 34.4556 8.241 34.4245 8.16031 34.4097Z" fill="black"/>
<path d="M8.89123 30.6982C7.89099 30.5013 6.85344 30.6573 5.95529 31.1395C5.05715 31.6218 4.35397 32.4005 3.96553 33.343C3.57709 34.2855 3.52741 35.3336 3.82497 36.3086C4.12252 37.2837 4.7489 38.1254 5.59741 38.6904C6.44591 39.2555 7.46407 39.5089 8.47844 39.4075C9.49281 39.3061 10.4407 38.8561 11.1605 38.1343C11.8804 37.4125 12.3278 36.4634 12.4264 35.4488C12.5251 34.4342 12.269 33.4167 11.7016 32.5697C11.0495 31.5985 10.0388 30.9255 8.89123 30.6982ZM9.89314 35.3927C9.79544 35.8837 9.50783 36.3163 9.09287 36.5963C8.78244 36.8069 8.41567 36.9189 8.04054 36.9177C7.91568 36.9172 7.79115 36.9046 7.66876 36.8799C7.42503 36.8331 7.19307 36.7383 6.98641 36.6009C6.77976 36.4635 6.60257 36.2863 6.4652 36.0796C6.1889 35.6623 6.0871 35.1533 6.18164 34.6618C6.22919 34.4183 6.32436 34.1867 6.4617 33.9802C6.59903 33.7736 6.77582 33.5962 6.98191 33.4582C7.39943 33.1801 7.90998 33.0783 8.40222 33.1751C8.89446 33.2719 9.32846 33.5594 9.60958 33.9749C9.88703 34.3918 9.98892 34.9012 9.89314 35.3927Z" fill="#262163"/>
<path d="M19.5209 27.9502L16.7421 26.6433L16.0681 30.0627L20.3958 30.9157L20.5711 30.0264C20.6531 29.6128 20.5942 29.1836 20.4039 28.8073C20.2136 28.431 19.9027 28.1292 19.5209 27.9502Z" fill="#262163"/>
<path d="M0.0125373 33.3196C-0.0036891 33.4007 -0.00369083 33.4842 0.0125322 33.5653C0.0287552 33.6464 0.0608818 33.7235 0.107058 33.7922C0.202574 33.93 0.346594 34.0268 0.510346 34.0631L2.39446 34.4349C2.41336 34.2648 2.43857 34.1009 2.47007 33.9308C2.60424 33.2557 2.86049 32.6108 3.22624 32.0278L0.378017 31.4669L0.0125373 33.3196Z" fill="#262163"/>
<path d="M13.5984 36.1237C13.5669 36.2938 13.5227 36.4576 13.4786 36.6152L17.2027 37.3524C17.3232 37.3754 17.4456 37.386 17.5682 37.3839C18.0067 37.3869 18.4323 37.2359 18.7709 36.9572C19.1095 36.6785 19.3395 36.2899 19.4208 35.859L19.5406 35.2415L13.6299 34.0757C13.7453 34.7545 13.7346 35.4487 13.5984 36.1237Z" fill="#262163"/>
<path d="M14.8019 30.9125C14.7115 30.7726 14.6777 30.6037 14.7073 30.4399L15.5643 26.0919L13.6109 25.1719L11.8843 19.6834C11.6799 19.0355 11.3045 18.4547 10.7977 18.0022C10.2909 17.5498 9.67146 17.2424 9.0046 17.1125L4.03912 16.1294C3.87531 16.1005 3.70659 16.1342 3.56652 16.224C3.42844 16.3181 3.33328 16.4631 3.30186 16.6273L2.93638 18.4799L8.5194 19.5826C8.73989 19.6273 8.94463 19.7296 9.11285 19.879C9.28106 20.0284 9.40677 20.2196 9.47721 20.4333L10.8698 24.8757C10.904 24.9802 10.9098 25.0919 10.8866 25.1993C10.8633 25.3067 10.8118 25.406 10.7375 25.487C10.6786 25.5522 10.6066 25.6045 10.5263 25.6403C10.446 25.6761 10.3591 25.6947 10.2712 25.6949C10.2308 25.6973 10.1904 25.6931 10.1515 25.6823L1.83994 24.044L0.623779 30.2319L4.12734 30.9188C5.18237 29.9182 6.58016 29.3591 8.03419 29.356C8.40432 29.357 8.77353 29.3929 9.13693 29.4631C9.86815 29.6054 10.5638 29.8914 11.1837 30.3046C11.8035 30.7178 12.3351 31.25 12.7476 31.8703C12.9285 32.1369 13.0846 32.4196 13.2139 32.7147L19.7862 34.0064L20.1517 32.1538L15.2052 31.1771C15.041 31.1457 14.896 31.0506 14.8019 30.9125ZM5.80351 27.3837C5.7611 27.3858 5.71863 27.3815 5.67748 27.3711L4.51173 27.1442C4.34748 27.111 4.20302 27.0142 4.10979 26.8749C4.01656 26.7357 3.9821 26.5652 4.01392 26.4007C4.04571 26.2369 4.14123 26.0925 4.27949 25.9991C4.41774 25.9058 4.5874 25.8712 4.75118 25.9029L5.92323 26.136C6.07681 26.1659 6.21374 26.252 6.30735 26.3773C6.40096 26.5027 6.44454 26.6584 6.42959 26.8142C6.41465 26.9699 6.34225 27.1145 6.22651 27.2198C6.11076 27.3251 5.95997 27.3835 5.80351 27.3837Z" fill="#262163"/>
<path d="M8.27687 20.8189L2.69259 19.7187L2.08325 22.8102L9.35188 24.2431L8.27687 20.8189Z" fill="#262163"/>
<path d="M31.3405 26.2053H40.3287V21.7944H33.038L31.3405 26.2053Z" fill="#262163"/>
<path d="M21.4247 34.3971V35.6574C21.4257 35.9913 21.5588 36.3113 21.7949 36.5475C22.031 36.7836 22.351 36.9167 22.685 36.9177H25.8735C25.8481 36.7086 25.8355 36.4982 25.8356 36.2875C25.8342 35.6431 25.9451 35.0034 26.1633 34.3971H21.4247Z" fill="#262163"/>
<path d="M37.1781 36.2875C37.1783 36.4982 37.1657 36.7086 37.1403 36.9177H40.3288V34.3971H36.8505C37.0687 35.0034 37.1796 35.6431 37.1781 36.2875Z" fill="#262163"/>
<path d="M33.0381 18.0135C32.2736 18.0138 31.5272 18.2458 30.8972 18.6789C30.2672 19.112 29.7833 19.7259 29.5093 20.4395L27.2598 26.2935L22.414 27.3711C22.1338 27.4326 21.8831 27.588 21.7032 27.8114C21.5233 28.0348 21.425 28.313 21.4247 28.5998V33.1368H26.7935C27.3111 32.3614 28.0122 31.7256 28.8343 31.286C29.6565 30.8463 30.5745 30.6162 31.5069 30.6162C32.4392 30.6162 33.3572 30.8463 34.1794 31.286C35.0016 31.7256 35.7026 32.3614 36.2203 33.1368H40.3288V27.4656H30.423C30.3213 27.4663 30.2209 27.442 30.1308 27.3947C30.0407 27.3475 29.9636 27.2787 29.9063 27.1946C29.8477 27.1101 29.8107 27.0124 29.7986 26.9102C29.7865 26.8081 29.7997 26.7045 29.837 26.6086L31.8661 21.3406C31.9584 21.1045 32.1195 20.9014 32.3284 20.7576C32.5373 20.6138 32.7845 20.536 33.0381 20.5341H40.3288V18.0135H33.0381Z" fill="#262163"/>
<path d="M21.4247 19.904C21.4247 19.7369 21.3583 19.5766 21.2401 19.4584C21.122 19.3403 20.9617 19.2739 20.7946 19.2739C20.6274 19.2739 20.4672 19.3403 20.349 19.4584C20.2308 19.5766 20.1644 19.7369 20.1644 19.904V24.315C20.1644 24.4821 20.2308 24.6424 20.349 24.7605C20.4672 24.8787 20.6274 24.9451 20.7946 24.9451C20.9617 24.9451 21.122 24.8787 21.2401 24.7605C21.3583 24.6424 21.4247 24.4821 21.4247 24.315V19.904Z" fill="#262163"/>
<path d="M23.4209 22.075L22.1607 23.9654C22.1138 24.0342 22.081 24.1117 22.0643 24.1932C22.0475 24.2748 22.0471 24.3589 22.063 24.4406C22.079 24.5223 22.1109 24.6001 22.1571 24.6694C22.2033 24.7387 22.2627 24.7982 22.332 24.8443C22.4013 24.8905 22.479 24.9225 22.5607 24.9385C22.6425 24.9545 22.7265 24.9541 22.8081 24.9373C22.8897 24.9206 22.9671 24.8879 23.036 24.8411C23.1048 24.7942 23.1637 24.7342 23.2092 24.6645L24.4695 22.7741C24.5602 22.635 24.5925 22.4657 24.5591 22.3031C24.5257 22.1404 24.4295 21.9975 24.2913 21.9053C24.1532 21.8132 23.9842 21.7794 23.8212 21.8111C23.6583 21.8429 23.5144 21.9377 23.4209 22.075Z" fill="#262163"/>
<path d="M17.2943 21.9003C17.1553 21.993 17.0588 22.1371 17.026 22.301C16.9933 22.4648 17.0269 22.635 17.1196 22.7741L18.3799 24.6645C18.4255 24.734 18.4844 24.7938 18.5532 24.8404C18.622 24.8871 18.6994 24.9196 18.7809 24.9362C18.8623 24.9528 18.9463 24.9531 19.0279 24.9372C19.1094 24.9212 19.1871 24.8892 19.2562 24.8431C19.3254 24.797 19.3848 24.7376 19.4309 24.6684C19.477 24.5993 19.509 24.5217 19.525 24.4401C19.541 24.3585 19.5407 24.2746 19.5242 24.1931C19.5076 24.1116 19.475 24.0342 19.4284 23.9654L18.1681 22.075C18.1223 22.0061 18.0633 21.9469 17.9946 21.9008C17.9258 21.8547 17.8486 21.8226 17.7675 21.8064C17.6863 21.7902 17.6028 21.7901 17.5216 21.8062C17.4404 21.8223 17.3632 21.8543 17.2943 21.9003Z" fill="#262163"/>
<path d="M20.5928 17.3519C20.7239 17.3939 20.8649 17.3939 20.9961 17.3519C22.7739 16.7605 24.3202 15.6239 25.4152 14.1036C26.5102 12.5833 27.0983 10.7565 27.0958 8.88287V4.78068C27.0953 4.61371 27.0287 4.45372 26.9107 4.33565C26.7926 4.21759 26.6326 4.15104 26.4657 4.15054C24.5001 4.024 22.6458 3.19414 21.2418 1.81273C21.1228 1.69469 20.962 1.62845 20.7944 1.62845C20.6268 1.62845 20.466 1.69469 20.347 1.81273C18.9431 3.19414 17.0887 4.024 15.1232 4.15054C14.9562 4.15104 14.7962 4.21759 14.6782 4.33565C14.5601 4.45372 14.4935 4.61371 14.493 4.78068V8.88287C14.4906 10.7565 15.0786 12.5833 16.1736 14.1036C17.2686 15.6239 18.8149 16.7605 20.5928 17.3519ZM18.4585 8.74613C18.517 8.6876 18.5865 8.64118 18.6629 8.6095C18.7393 8.57782 18.8213 8.56152 18.904 8.56152C18.9868 8.56152 19.0687 8.57782 19.1452 8.6095C19.2216 8.64118 19.2911 8.6876 19.3496 8.74613L20.1643 9.56086L22.2393 7.48582C22.2977 7.42671 22.3672 7.37973 22.4438 7.34757C22.5204 7.31542 22.6026 7.29874 22.6857 7.29848C22.7687 7.29822 22.851 7.31439 22.9279 7.34606C23.0047 7.37773 23.0744 7.42428 23.1332 7.48303C23.1919 7.54177 23.2385 7.61155 23.2701 7.68835C23.3018 7.76516 23.318 7.84746 23.3177 7.93054C23.3174 8.01361 23.3007 8.09582 23.2686 8.17242C23.2364 8.24901 23.1895 8.3185 23.1303 8.37687L20.6098 10.8974C20.5513 10.9559 20.4818 11.0024 20.4054 11.034C20.329 11.0657 20.247 11.082 20.1643 11.082C20.0815 11.082 19.9996 11.0657 19.9231 11.034C19.8467 11.0024 19.7772 10.9559 19.7187 10.8974L18.4585 9.63715C18.3999 9.57865 18.3535 9.50919 18.3219 9.43275C18.2902 9.35631 18.2739 9.27437 18.2739 9.19163C18.2739 9.10889 18.2902 9.02695 18.3219 8.95051C18.3536 8.87407 18.4 8.80462 18.4585 8.74613Z" fill="#ED1E24"/>
</g>
<defs>
<clipPath id="clip0_30_552">
<rect width="40.3288" height="40.3288" fill="white"/>
</clipPath>
</defs>
</svg>
