<svg width="75" height="75" viewBox="0 0 75 75" fill="none" xmlns="http://www.w3.org/2000/svg">
<g clip-path="url(#clip0_30_532)">
<path d="M59.6191 52.2948C54.9747 52.2948 51.1963 48.5164 51.1963 43.8719C51.1963 39.2275 54.9747 35.4491 59.6191 35.4491C64.2636 35.4491 68.042 39.2275 68.042 43.8719C68.042 48.5164 64.2636 52.2948 59.6191 52.2948Z" fill="#262163"/>
<path d="M15.3809 52.2948C10.7364 52.2948 6.95801 48.5164 6.95801 43.8719C6.95801 39.2275 10.7364 35.4491 15.3809 35.4491C20.0253 35.4491 23.8037 39.2275 23.8037 43.8719C23.8037 48.5164 20.0253 52.2948 15.3809 52.2948Z" fill="#262163"/>
<path d="M52.1484 5.85924C49.3718 5.85924 46.8756 4.31646 45.634 1.83326L45.3248 1.21466C44.9525 0.470077 44.1917 -0.000137329 43.3594 -0.000137329H31.6406C30.8083 -0.000137329 30.0475 0.470077 29.6752 1.21451L29.366 1.83297C28.1244 4.31646 25.6282 5.85924 22.8516 5.85924C21.6381 5.85924 20.6543 6.84303 20.6543 8.0565V20.5951C20.6543 25.5249 22.2098 30.2213 25.1525 34.1766C28.0953 38.1316 32.1467 40.9711 36.8687 42.3876C37.0746 42.4494 37.2873 42.4803 37.5 42.4803C37.7127 42.4803 37.9254 42.4494 38.1313 42.3876C42.8533 40.9711 46.9047 38.1316 49.8475 34.1766C52.7902 30.2213 54.3457 25.5249 54.3457 20.5951V8.0565C54.3457 6.84303 53.3619 5.85924 52.1484 5.85924ZM45.2685 18.6505L36.9822 26.9369C36.5531 27.3659 35.9908 27.5805 35.4286 27.5805C34.8664 27.5805 34.3039 27.3661 33.875 26.9369L29.7318 22.7937C28.8737 21.9356 28.8737 20.5444 29.7318 19.6863C30.5897 18.8282 31.9811 18.8282 32.8392 19.6863L35.4287 22.2757L42.1614 15.5432C43.0194 14.6851 44.4107 14.6851 45.2688 15.5432C46.1266 16.4013 46.1266 17.7924 45.2685 18.6505Z" fill="#ED1E24"/>
<path d="M68.6043 53.0028C66.2894 55.2811 63.1158 56.6892 59.6189 56.6892C56.1165 56.6892 52.9382 55.2767 50.6225 52.9918C49.3932 53.8775 48.2991 54.9396 47.3799 56.1447L48.5872 57.2022C52.2467 60.4074 54.3455 65.0257 54.3455 69.8728V74.9998H72.8025C74.016 74.9998 74.9998 74.016 74.9998 72.8025V65.4783C74.9998 60.349 72.4754 55.7988 68.6043 53.0028Z" fill="#262163"/>
<path d="M6.39551 53.0028C2.52436 55.7988 0 60.349 0 65.4783V72.8025C0 74.016 0.983789 74.9998 2.19727 74.9998H20.6543V69.8728C20.6543 65.0257 22.7531 60.4074 26.4126 57.2022L27.6199 56.1447C26.7007 54.9396 25.6066 53.8775 24.3773 52.9918C22.0616 55.2767 18.8833 56.6892 15.3809 56.6892C11.884 56.6892 8.7104 55.2811 6.39551 53.0028Z" fill="#262163"/>
<path d="M45.692 60.5082C43.6242 62.6659 40.7174 64.0135 37.5 64.0135C34.2826 64.0135 31.3758 62.6659 29.308 60.5082C26.7003 62.7922 25.0488 66.1423 25.0488 69.8729V74.9999H49.9512V69.8729C49.9512 66.1423 48.2997 62.7922 45.692 60.5082Z" fill="#262163"/>
<path d="M37.5 59.619C33.6633 59.619 30.542 56.4977 30.542 52.661C30.542 48.8243 33.6633 45.703 37.5 45.703C41.3367 45.703 44.458 48.8243 44.458 52.661C44.458 56.4977 41.3367 59.619 37.5 59.619Z" fill="#262163"/>
</g>
<defs>
<clipPath id="clip0_30_532">
<rect width="75" height="75" fill="white"/>
</clipPath>
</defs>
</svg>
